<mxfile host="app.diagrams.net" modified="2023-01-09T14:08:17.464Z" agent="5.0 (Windows NT 10.0; Win64; x64) AppleWebKit/537.36 (KHTML, like Gecko) Chrome/108.0.0.0 Safari/537.36" etag="svYYKvbeUAoHv-co4FXe" version="16.2.6" type="github">
  <diagram id="NTqNDYjO7tPKsiqi-gnh" name="Page-1">
    <mxGraphModel dx="1422" dy="754" grid="1" gridSize="10" guides="1" tooltips="1" connect="1" arrows="1" fold="1" page="1" pageScale="1" pageWidth="827" pageHeight="1169" math="0" shadow="0">
      <root>
        <mxCell id="0" />
        <mxCell id="1" parent="0" />
        <mxCell id="ImZ4WvExJ2NDALbuqCKL-1" value="Photon PUN&lt;br&gt;Match Making&lt;br&gt;Service" style="ellipse;shape=cloud;whiteSpace=wrap;html=1;" vertex="1" parent="1">
          <mxGeometry x="354" y="310" width="120" height="80" as="geometry" />
        </mxCell>
        <mxCell id="ImZ4WvExJ2NDALbuqCKL-2" value="Player B&lt;br&gt;(Client)" style="points=[[0.35,0,0],[0.98,0.51,0],[1,0.71,0],[0.67,1,0],[0,0.795,0],[0,0.65,0]];verticalLabelPosition=bottom;sketch=0;html=1;verticalAlign=top;aspect=fixed;align=center;pointerEvents=1;shape=mxgraph.cisco19.user;fillColor=#005073;strokeColor=none;" vertex="1" parent="1">
          <mxGeometry x="550" y="250" width="50" height="50" as="geometry" />
        </mxCell>
        <mxCell id="ImZ4WvExJ2NDALbuqCKL-3" value="Player A&lt;br&gt;(Host)" style="points=[[0.35,0,0],[0.98,0.51,0],[1,0.71,0],[0.67,1,0],[0,0.795,0],[0,0.65,0]];verticalLabelPosition=bottom;sketch=0;html=1;verticalAlign=top;aspect=fixed;align=center;pointerEvents=1;shape=mxgraph.cisco19.user;fillColor=#005073;strokeColor=none;" vertex="1" parent="1">
          <mxGeometry x="240" y="270" width="50" height="50" as="geometry" />
        </mxCell>
        <mxCell id="ImZ4WvExJ2NDALbuqCKL-4" value="Player C&lt;br&gt;(Client)" style="points=[[0.35,0,0],[0.98,0.51,0],[1,0.71,0],[0.67,1,0],[0,0.795,0],[0,0.65,0]];verticalLabelPosition=bottom;sketch=0;html=1;verticalAlign=top;aspect=fixed;align=center;pointerEvents=1;shape=mxgraph.cisco19.user;fillColor=#005073;strokeColor=none;" vertex="1" parent="1">
          <mxGeometry x="540" y="360" width="50" height="50" as="geometry" />
        </mxCell>
        <mxCell id="ImZ4WvExJ2NDALbuqCKL-5" value="Player Account and&lt;br&gt;&amp;nbsp;Database Server" style="aspect=fixed;perimeter=ellipsePerimeter;html=1;align=center;shadow=0;dashed=0;spacingTop=3;image;image=img/lib/active_directory/database_server.svg;" vertex="1" parent="1">
          <mxGeometry x="400" y="140" width="41" height="50" as="geometry" />
        </mxCell>
        <mxCell id="ImZ4WvExJ2NDALbuqCKL-6" value="" style="endArrow=classic;startArrow=classic;html=1;rounded=0;exitX=1;exitY=0.71;exitDx=0;exitDy=0;exitPerimeter=0;" edge="1" parent="1" source="ImZ4WvExJ2NDALbuqCKL-3" target="ImZ4WvExJ2NDALbuqCKL-1">
          <mxGeometry width="50" height="50" relative="1" as="geometry">
            <mxPoint x="410" y="240" as="sourcePoint" />
            <mxPoint x="460" y="190" as="targetPoint" />
          </mxGeometry>
        </mxCell>
        <mxCell id="ImZ4WvExJ2NDALbuqCKL-7" value="" style="endArrow=classic;startArrow=classic;html=1;rounded=0;exitX=0;exitY=0.795;exitDx=0;exitDy=0;exitPerimeter=0;" edge="1" parent="1" source="ImZ4WvExJ2NDALbuqCKL-2" target="ImZ4WvExJ2NDALbuqCKL-1">
          <mxGeometry width="50" height="50" relative="1" as="geometry">
            <mxPoint x="710" y="290" as="sourcePoint" />
            <mxPoint x="383.5119946107068" y="306.515766455459" as="targetPoint" />
          </mxGeometry>
        </mxCell>
        <mxCell id="ImZ4WvExJ2NDALbuqCKL-9" value="" style="endArrow=classic;startArrow=classic;html=1;rounded=0;entryX=0.96;entryY=0.7;entryDx=0;entryDy=0;entryPerimeter=0;" edge="1" parent="1" source="ImZ4WvExJ2NDALbuqCKL-4" target="ImZ4WvExJ2NDALbuqCKL-1">
          <mxGeometry width="50" height="50" relative="1" as="geometry">
            <mxPoint x="200" y="315.5" as="sourcePoint" />
            <mxPoint x="380.0187412155126" y="319.0003123535919" as="targetPoint" />
          </mxGeometry>
        </mxCell>
        <mxCell id="ImZ4WvExJ2NDALbuqCKL-12" value="" style="endArrow=classic;startArrow=classic;html=1;rounded=0;exitX=0.55;exitY=0.138;exitDx=0;exitDy=0;exitPerimeter=0;" edge="1" parent="1" source="ImZ4WvExJ2NDALbuqCKL-1" target="ImZ4WvExJ2NDALbuqCKL-5">
          <mxGeometry width="50" height="50" relative="1" as="geometry">
            <mxPoint x="660" y="310" as="sourcePoint" />
            <mxPoint x="420" y="180" as="targetPoint" />
          </mxGeometry>
        </mxCell>
        <mxCell id="ImZ4WvExJ2NDALbuqCKL-13" value="Authentication" style="edgeLabel;html=1;align=center;verticalAlign=middle;resizable=0;points=[];" vertex="1" connectable="0" parent="ImZ4WvExJ2NDALbuqCKL-12">
          <mxGeometry x="-0.1601" y="2" relative="1" as="geometry">
            <mxPoint x="1" as="offset" />
          </mxGeometry>
        </mxCell>
        <mxCell id="ImZ4WvExJ2NDALbuqCKL-14" value="" style="endArrow=classic;startArrow=classic;html=1;rounded=0;entryX=-0.024;entryY=0.96;entryDx=0;entryDy=0;entryPerimeter=0;" edge="1" parent="1" source="ImZ4WvExJ2NDALbuqCKL-3" target="ImZ4WvExJ2NDALbuqCKL-5">
          <mxGeometry width="50" height="50" relative="1" as="geometry">
            <mxPoint x="660" y="320" as="sourcePoint" />
            <mxPoint x="710" y="260" as="targetPoint" />
          </mxGeometry>
        </mxCell>
        <mxCell id="ImZ4WvExJ2NDALbuqCKL-15" value="Game Data Request &amp;amp; Update" style="edgeLabel;html=1;align=center;verticalAlign=middle;resizable=0;points=[];" vertex="1" connectable="0" parent="ImZ4WvExJ2NDALbuqCKL-14">
          <mxGeometry x="-0.1637" y="-4" relative="1" as="geometry">
            <mxPoint x="-1" as="offset" />
          </mxGeometry>
        </mxCell>
      </root>
    </mxGraphModel>
  </diagram>
</mxfile>
